# xmcd
#
# Track frame offsets:
#	150
#	15183
#	30997
#	43189
#	61007
#	75289
#	90442
#	106846
#	123656
#	142144
#	163110
#	182323
#	202794
#	220607
#	259601
#
# Disc length: 4768 seconds
#
# Revision: 2
# Processed by: cddbd v1.5.2PL0 Copyright (c) Steve Scherf et al.
# Submitted via: EZCDAudioConverter 3.1.5.1
#
DISCID=ad129e0f
DTITLE=Jill Johnson - Music Row;Live In Concert 
DYEAR=2007
DGENRE=Country
TTITLE0=Rhythm Guitar
TTITLE1=Jolene
TTITLE2=Why'd You Come in Here Looking Like That (Duet With Nina Persson)
TTITLE3=Angel of the Morning
TTITLE4=Papa Come Quick
TTITLE5=Mama He's Crazy
TTITLE6=Tumblin' Dice (Duet With Kim Carnes)
TTITLE7=You're No Good
TTITLE8=Why Not Me
TTITLE9=Life in the Fast Lane
TTITLE10=You Don't Have to Say You Love Me
TTITLE11=Need Your Love So Bad
TTITLE12=To Know Him Is to Love Him (Duet With Lisa Miskovsky)
TTITLE13=Angel From Montgomery
TTITLE14=Movie - the Making of Music Row
EXTD=
EXTT0=
EXTT1=
EXTT2=
EXTT3=
EXTT4=
EXTT5=
EXTT6=
EXTT7=
EXTT8=
EXTT9=
EXTT10=
EXTT11=
EXTT12=
EXTT13=
EXTT14=
PLAYORDER=
